<svg width="30" height="30" viewBox="0 0 43 43" fill="none" xmlns="http://www.w3.org/2000/svg">
<path d="M18.5681 5.375C15.9588 5.375 13.408 6.14876 11.2384 7.59844C9.06882 9.04812 7.37783 11.1086 6.37927 13.5193C5.38072 15.9301 5.11945 18.5827 5.62851 21.142C6.13757 23.7012 7.39409 26.052 9.23918 27.897C11.0843 29.7421 13.4351 30.9987 15.9943 31.5077C18.5535 32.0168 21.2062 31.7555 23.6169 30.757C26.0276 29.7584 28.0881 28.0674 29.5378 25.8978C30.9875 23.7282 31.7612 21.1775 31.7612 18.5681C31.761 15.0691 30.3709 11.7136 27.8968 9.23942C25.4227 6.76528 22.0671 5.37522 18.5681 5.375V5.375Z" stroke="#FF2156" stroke-width="2.5" stroke-miterlimit="10"/>
<path d="M28.411 28.411L37.6249 37.625" stroke="#FF2156" stroke-width="2.5" stroke-miterlimit="10" stroke-linecap="round"/>
<g clip-path="url(#clip0)">
<path d="M18.2751 10.7592C18.8102 11.9953 19.6915 13.7581 21.3281 15.7649C22.4762 17.1735 23.5282 19.0659 23.5282 21.0067C23.5282 24.1818 21.2755 26.296 18.2751 26.296C15.2747 26.296 13.0221 24.1832 13.0221 21.0067C13.0221 19.1458 14.0775 17.1693 15.2223 15.7647C16.8588 13.7581 17.7401 11.9952 18.2751 10.7592Z" stroke="#FF2156" stroke-width="1.5"/>
<path d="M18.765 20.9022L18.765 20.9022C17.9967 22.3637 18.6274 23.3631 19.2615 23.5757L19.2616 23.5758C19.7334 23.7342 20.1161 23.6454 20.4216 23.4026C20.7462 23.1448 21.0238 22.6774 21.1603 22.0246L18.765 20.9022ZM18.765 20.9022C19.2002 20.0744 19.4256 19.248 19.5896 18.6466M18.765 20.9022L19.5896 18.6466M19.5896 18.6466C19.618 18.5424 19.6446 18.445 19.6701 18.3555M19.5896 18.6466L19.6701 18.3555M19.6701 18.3555C19.7327 18.1358 19.7819 17.9908 19.8221 17.8981M19.6701 18.3555L19.8221 17.8981M19.8221 17.8981C19.9572 17.982 20.1161 18.123 20.2829 18.3309C20.4945 18.5946 20.6975 18.9398 20.8622 19.3399C21.1935 20.1445 21.3495 21.1186 21.1603 22.0245L19.8221 17.8981ZM19.7099 17.8388L19.7103 17.838L19.7093 17.8378C19.7063 17.8372 19.7048 17.8367 19.7048 17.8367C19.7047 17.8368 19.7064 17.8373 19.7099 17.8388Z" stroke="#FF2156"/>
</g>
<defs>
<clipPath id="clip0">
<rect width="19.35" height="19.35" fill="white" transform="translate(8.6001 8.60001)"/>
</clipPath>
</defs>
</svg>