<svg width="281" height="266" viewBox="0 0 281 266" fill="none" xmlns="http://www.w3.org/2000/svg">
<path d="M3.70634 169.281C5.45624 170.045 9.72601 169.949 9.73237 169.949C9.73873 169.949 8.81606 167.149 8.73333 166.984C7.79157 165.018 4.83264 161.779 2.4146 162.11C2.01561 162.174 1.63478 162.323 1.29694 162.545C0.959104 162.767 0.671842 163.057 0.453892 163.398C0.235942 163.738 0.0921989 164.121 0.0320357 164.52C-0.0281276 164.92 -0.00335931 165.328 0.104725 165.718C0.505612 167.391 2.21733 168.632 3.70634 169.281Z" fill="#263238"/>
<path d="M5.18254 181.683C6.99607 181.95 10.8077 180.843 11.1131 180.754C11.7404 182.937 12.5121 185.075 13.423 187.155C13.9511 188.365 14.5175 189.574 15.0965 190.776C14.7529 190.267 14.4602 189.815 14.3838 189.758C12.9648 188.11 9.24867 185.775 7.0088 186.723C6.64176 186.892 6.31434 187.136 6.04777 187.44C5.7812 187.743 5.58143 188.099 5.46143 188.485C5.34142 188.871 5.30387 189.278 5.35119 189.679C5.39852 190.08 5.52967 190.467 5.73614 190.814C6.56337 192.322 8.54871 193.067 10.1523 193.302C11.7558 193.538 15.052 192.666 15.9174 192.418C16.1465 192.876 16.3692 193.341 16.5983 193.799C17.6991 195.994 18.8127 198.183 19.8372 200.366C20.1999 201.136 20.5244 201.906 20.8553 202.676C20.5499 202.217 20.2826 201.842 20.219 201.791C18.7936 200.143 15.0838 197.801 12.8376 198.756C12.4698 198.924 12.1417 199.168 11.8746 199.471C11.6074 199.775 11.4073 200.131 11.2872 200.517C11.1671 200.903 11.1297 201.31 11.1776 201.712C11.2255 202.113 11.3574 202.5 11.5649 202.847C12.3921 204.355 14.3711 205.1 15.981 205.335C17.5909 205.571 20.5626 204.775 21.5871 204.495C21.9052 205.291 22.2234 206.086 22.4907 206.875C22.6625 207.416 22.8661 207.925 23.0061 208.479C23.1461 209.032 23.3052 209.567 23.4579 210.101C23.706 211.145 23.9733 212.214 24.1897 213.232C24.3424 213.945 24.4824 214.619 24.6224 215.307C24.2724 214.537 23.5533 213.048 23.477 212.927C22.3189 211.088 19.0227 208.212 16.6428 208.81C16.2511 208.918 15.8866 209.107 15.5732 209.366C15.2598 209.624 15.0046 209.946 14.8243 210.31C14.6441 210.674 14.5428 211.072 14.5272 211.478C14.5116 211.884 14.582 212.289 14.7338 212.666C15.3192 214.276 17.1646 215.313 18.7172 215.79C20.429 216.312 24.2151 215.835 24.686 215.79C24.9151 216.923 25.1251 218.024 25.3223 219.067C25.9587 222.682 26.3532 225.717 26.595 227.842C26.6395 228.218 26.6713 228.555 26.7095 228.873H19.4108L20.3017 246.207H36.3626L37.2471 228.873H30.4257C30.4766 228.771 30.5211 228.67 30.572 228.561C31.5138 226.608 32.8119 223.808 34.2118 220.372C34.6573 219.29 35.1154 218.126 35.5672 216.923C36.0254 217.018 39.7733 217.782 41.5232 217.387C43.1013 217.025 45.023 216.115 45.7294 214.562C45.9086 214.2 46.0095 213.804 46.0254 213.4C46.0414 212.996 45.972 212.594 45.822 212.218C45.6719 211.843 45.4444 211.504 45.1543 211.222C44.8643 210.941 44.5181 210.724 44.1385 210.585C41.835 209.809 38.3098 212.43 37.018 214.18C36.9417 214.282 36.2417 215.491 35.8154 216.268C35.9999 215.771 36.1781 215.3 36.3626 214.791C36.7317 213.786 37.0689 212.774 37.438 211.686L37.9216 210.07C38.0934 209.535 38.208 208.95 38.3543 208.383C38.6661 207.066 38.9207 205.717 39.1434 204.349C40.0279 204.674 43.165 205.762 44.794 205.622C46.423 205.482 48.4465 204.915 49.3819 203.477C49.6145 203.146 49.7747 202.769 49.8521 202.372C49.9296 201.975 49.9224 201.566 49.8312 201.171C49.7399 200.777 49.5666 200.406 49.3226 200.083C49.0785 199.76 48.7692 199.492 48.4147 199.297C46.2512 198.183 42.3696 200.238 40.8296 201.772C40.7342 201.867 39.7542 203.096 39.2261 203.776C39.3534 202.956 39.487 202.135 39.5952 201.301C39.8942 198.883 40.1233 196.433 40.3588 193.983C40.4351 193.239 40.5115 192.494 40.5942 191.743C40.906 191.864 44.6094 193.239 46.4293 193.112C48.052 192.997 50.0818 192.405 51.0236 190.967C51.2572 190.635 51.418 190.257 51.4956 189.858C51.5732 189.459 51.5658 189.049 51.474 188.653C51.3821 188.257 51.2078 187.885 50.9624 187.561C50.7171 187.238 50.4062 186.969 50.05 186.774C47.8865 185.66 44.0113 187.715 42.4714 189.249C42.3505 189.364 40.9442 191.126 40.6069 191.597C40.7787 189.949 40.9696 188.314 41.2432 186.71C41.5728 184.538 42.0425 182.389 42.6495 180.277C42.7959 180.334 46.652 181.791 48.5228 181.658C50.1391 181.543 52.169 180.951 53.1108 179.513C53.3434 179.182 53.5036 178.805 53.581 178.408C53.6584 178.011 53.6513 177.601 53.56 177.207C53.4688 176.813 53.2955 176.442 53.0514 176.119C52.8074 175.796 52.498 175.528 52.1436 175.333C49.98 174.219 46.0984 176.274 44.5585 177.808C44.4376 177.929 42.9232 179.825 42.6495 180.194C42.6877 180.067 42.7132 179.94 42.7514 179.819C43.4173 177.719 44.2691 175.683 45.2967 173.735C45.8503 172.647 46.4421 171.648 47.0338 170.681C47.7274 171.025 50.9027 172.59 52.5953 172.634C54.288 172.679 56.3051 172.335 57.3933 171.005C57.6601 170.702 57.86 170.345 57.9801 169.959C58.1002 169.573 58.1377 169.166 58.0903 168.765C58.0429 168.364 57.9116 167.977 57.7049 167.629C57.4982 167.282 57.2208 166.982 56.8906 166.748C54.8607 165.399 50.7818 167.016 49.0828 168.371C48.9874 168.447 48.1283 169.3 47.5174 169.93C47.7911 169.497 48.0647 169.052 48.3383 168.657C49.3564 167.124 50.3873 165.788 51.3036 164.604C51.8317 163.936 52.3217 163.331 52.7862 162.797C53.6453 162.797 57.0878 162.676 58.5959 161.97C60.104 161.263 61.7776 159.991 62.1021 158.311C62.1986 157.918 62.2114 157.509 62.1398 157.111C62.0681 156.712 61.9136 156.334 61.6863 155.999C61.4589 155.664 61.1637 155.381 60.8199 155.167C60.4761 154.954 60.0913 154.815 59.6904 154.76C57.2724 154.499 54.3962 157.821 53.5117 159.806C53.4353 159.978 52.5444 162.797 52.589 162.797H52.6399C52.1817 163.319 51.6981 163.879 51.1827 164.502C50.2346 165.667 49.1783 166.99 48.122 168.511C46.9614 170.13 45.8989 171.817 44.9403 173.564C43.8555 175.506 42.9462 177.542 42.2232 179.647C42.2232 179.647 42.2232 179.698 42.2232 179.723C42.2232 179.011 42.2232 177.012 42.185 176.86C41.905 174.703 40.0979 170.706 37.7307 170.261C37.331 170.198 36.9225 170.22 36.5319 170.325C36.1413 170.431 35.7773 170.618 35.4638 170.874C35.1503 171.13 34.8943 171.449 34.7126 171.81C34.5308 172.172 34.4274 172.568 34.4091 172.972C34.2691 174.683 35.5099 176.395 36.719 177.477C38.0871 178.699 41.8796 179.882 42.1787 179.971C41.4995 182.14 40.9639 184.35 40.5751 186.589C40.346 187.862 40.1488 189.211 39.977 190.534C39.977 189.898 39.977 189.364 39.9451 189.262C39.6652 187.105 37.858 183.108 35.4908 182.663C35.0913 182.601 34.6832 182.624 34.293 182.73C33.9027 182.836 33.5392 183.023 33.2259 183.278C32.9127 183.534 32.6567 183.853 32.4746 184.214C32.2926 184.575 32.1885 184.97 32.1692 185.374C32.0292 187.085 33.2701 188.797 34.4854 189.879C35.7008 190.961 38.9397 192.049 39.7797 192.322C39.7161 192.832 39.6461 193.341 39.5888 193.85C39.2961 196.293 39.0161 198.73 38.6661 201.117C38.5452 201.956 38.3925 202.777 38.2398 203.605C38.2398 203.057 38.2398 202.593 38.2398 202.523C37.9598 200.366 36.1526 196.37 33.7855 195.924C33.3856 195.862 32.9771 195.885 32.5866 195.991C32.196 196.097 31.8321 196.283 31.5183 196.539C31.2046 196.795 30.948 197.113 30.7653 197.474C30.5825 197.835 30.4777 198.231 30.4575 198.635C30.3175 200.347 31.5647 202.058 32.7737 203.14C33.9827 204.222 36.7762 205.227 37.7689 205.558C37.5907 206.398 37.4126 207.238 37.2026 208.046C37.0499 208.593 36.9353 209.128 36.7508 209.669C36.5662 210.21 36.4008 210.744 36.2353 211.272C35.8663 212.278 35.4972 213.315 35.1154 214.289C34.8545 214.963 34.5936 215.606 34.3327 216.248C34.4664 215.415 34.6891 213.779 34.6891 213.639C34.665 211.726 34.1502 209.85 33.1937 208.193C33.2011 207.979 33.1861 207.766 33.1492 207.556C33.0993 207.155 32.9654 206.769 32.7563 206.423C32.5472 206.077 32.2675 205.779 31.9354 205.549C31.6034 205.318 31.2265 205.16 30.8293 205.085C30.4321 205.01 30.0236 205.019 29.6303 205.113C27.2758 205.749 25.8123 209.872 25.6723 212.042C25.6723 212.17 25.7487 213.569 25.8187 214.448C25.6978 213.939 25.5896 213.436 25.4623 212.914C25.2141 211.87 24.9405 210.84 24.6415 209.732C24.4824 209.198 24.3233 208.663 24.1578 208.122C23.9924 207.582 23.776 207.028 23.5915 206.474C23.1206 205.202 22.5925 203.929 22.0261 202.656C22.9361 202.44 26.1559 201.619 27.454 200.627C28.7521 199.634 30.133 198.037 30.133 196.319C30.1432 195.915 30.0683 195.513 29.9133 195.14C29.7583 194.767 29.5266 194.43 29.2332 194.153C28.9398 193.875 28.5912 193.662 28.2102 193.527C27.8291 193.393 27.4241 193.34 27.0213 193.372C24.5969 193.633 22.497 197.489 22.058 199.621C22.058 199.755 21.8862 201.314 21.8289 202.166C21.4789 201.409 21.1416 200.652 20.7662 199.901C19.6845 197.719 18.52 195.549 17.3682 193.379L16.3246 191.381C16.6555 191.304 20.5053 190.413 21.9561 189.3C23.2288 188.314 24.6096 186.697 24.5969 184.979C24.608 184.575 24.5339 184.173 24.3793 183.799C24.2247 183.425 23.9931 183.088 23.6996 182.809C23.406 182.531 23.0572 182.317 22.6757 182.182C22.2942 182.047 21.8886 181.994 21.4853 182.027C19.0609 182.288 16.961 186.144 16.5219 188.275C16.5219 188.435 16.2865 190.687 16.261 191.26C15.5038 189.79 14.7529 188.32 14.0784 186.844C13.1455 184.854 12.3441 182.804 11.6794 180.709C11.8258 180.671 15.8538 179.761 17.3364 178.622C18.6091 177.63 19.9899 176.013 19.9772 174.295C19.9873 173.891 19.9124 173.489 19.7575 173.116C19.6026 172.742 19.3709 172.406 19.0776 172.127C18.7844 171.849 18.4359 171.635 18.0549 171.5C17.6738 171.365 17.2686 171.311 16.8655 171.343C14.4475 171.61 12.3476 175.466 11.9085 177.591C11.8703 177.763 11.654 180.181 11.6476 180.62C11.6094 180.499 11.5585 180.379 11.5204 180.258C10.9195 178.139 10.5085 175.971 10.2922 173.78C10.1523 172.571 10.095 171.406 10.0568 170.274C10.8268 170.178 14.3266 169.714 15.7838 168.836C17.241 167.957 18.7109 166.538 18.889 164.827C18.9436 164.427 18.9137 164.021 18.8015 163.634C18.6893 163.247 18.4972 162.888 18.2375 162.58C17.9779 162.271 17.6565 162.021 17.2942 161.845C16.9318 161.668 16.5365 161.57 16.1337 161.556C13.6966 161.556 11.1895 165.151 10.515 167.219C10.4768 167.334 10.235 168.492 10.0695 169.383C10.0695 168.867 10.0695 168.339 10.0695 167.849C10.0695 166.01 10.1904 164.324 10.305 162.835C10.3813 161.982 10.4641 161.219 10.5468 160.506C11.2531 160.022 14.0657 158.031 14.9311 156.612C15.7965 155.193 16.471 153.226 15.8347 151.623C15.6988 151.242 15.4845 150.894 15.2055 150.602C14.9265 150.31 14.5892 150.079 14.2154 149.925C13.8415 149.772 13.4396 149.699 13.0356 149.71C12.6316 149.722 12.2346 149.819 11.8703 149.994C9.70683 151.114 9.1405 155.466 9.49684 157.63C9.49684 157.814 10.3432 160.659 10.3813 160.633H10.4259C10.3304 161.314 10.235 162.052 10.1523 162.86C9.99954 164.356 9.84682 166.042 9.80228 167.887C9.73644 169.878 9.78531 171.871 9.94863 173.856C10.1048 176.068 10.4583 178.262 11.0049 180.41C11.0077 180.436 11.0077 180.461 11.0049 180.487C10.6231 179.882 9.49684 178.234 9.39503 178.12C7.97602 176.478 4.25986 174.136 2.01998 175.084C1.65275 175.254 1.32522 175.499 1.05861 175.803C0.791998 176.107 0.592239 176.464 0.472269 176.85C0.352299 177.237 0.314791 177.644 0.362173 178.046C0.409556 178.447 0.540772 178.835 0.747328 179.182C1.59364 180.678 3.57899 181.422 5.18254 181.683ZM29.3248 213.563C30.5975 214.912 33.7791 216.49 34.1736 216.694C33.7409 217.763 33.3082 218.8 32.901 219.767C31.4374 223.133 30.0948 225.882 29.1276 227.791C28.9303 228.173 28.7585 228.517 28.5931 228.829H28.4149C28.364 228.46 28.3131 228.052 28.2494 227.594C27.9567 225.45 27.4922 222.395 26.7668 218.756C26.5441 217.61 26.2768 216.382 25.9968 215.128C27.1355 214.671 28.2467 214.149 29.3248 213.563Z" fill="#263238"/>
<path d="M46.9322 170.229C46.9704 170.229 47.7085 167.385 47.734 167.2C48.033 165.049 47.3458 160.71 45.1886 159.653C44.8198 159.487 44.42 159.4 44.0153 159.399C43.6107 159.397 43.2103 159.482 42.8403 159.646C42.4704 159.809 42.1392 160.05 41.8684 160.35C41.5976 160.651 41.3933 161.005 41.2689 161.391C40.6771 163.007 41.4216 164.986 42.3061 166.348C43.3115 167.945 46.9258 170.229 46.9322 170.229Z" fill="#263238"/>
<path d="M64.6155 162.275C64.2151 162.342 63.8054 162.33 63.4098 162.238C63.0143 162.146 62.6408 161.978 62.3108 161.741C61.9808 161.504 61.7008 161.205 61.487 160.86C61.2731 160.515 61.1297 160.131 61.0648 159.73L56.3369 131.534L62.4075 130.51L67.1354 158.712C67.2065 159.111 67.1976 159.521 67.1091 159.917C67.0206 160.314 66.8544 160.688 66.62 161.02C66.3856 161.351 66.0877 161.633 65.7436 161.848C65.3995 162.064 65.0161 162.209 64.6155 162.275Z" fill="white" stroke="#263238" stroke-linecap="round" stroke-linejoin="round"/>
<path d="M64.5394 143.255L58.2397 142.893L61.065 159.749C61.1182 160.16 61.2537 160.555 61.4634 160.912C61.673 161.27 61.9526 161.581 62.2853 161.827C62.6179 162.074 62.997 162.251 63.3996 162.348C63.8023 162.445 64.2204 162.459 64.6288 162.391C65.0372 162.322 65.4276 162.172 65.7767 161.949C66.1258 161.726 66.4263 161.435 66.6603 161.094C66.8943 160.752 67.057 160.367 67.1387 159.961C67.2204 159.555 67.2193 159.136 67.1356 158.731L64.5394 143.255Z" fill="#FF2156" stroke="#263238" stroke-linecap="round" stroke-linejoin="round"/>
<path d="M63.3318 129.457L55.1172 130.836L56.077 136.553L64.2915 135.174L63.3318 129.457Z" fill="white" stroke="#263238" stroke-linecap="round" stroke-linejoin="round"/>
<path d="M75.1661 193.372C75.1661 193.372 55.1663 172.151 51.622 168.867C48.0776 165.584 46.945 163.045 47.0722 161.562C47.1995 160.08 51.6474 155.568 53.9382 155.759C56.229 155.95 69.0065 164.07 72.3217 168.32C74.8629 171.573 76.7651 175.279 77.9278 179.24C78.6659 181.74 78.6341 182.148 78.6341 182.148L83.7566 187.461L75.1661 193.372Z" fill="#FFEA9E" stroke="#263238" stroke-linecap="round" stroke-linejoin="round"/>
<path d="M48.001 164.388C48.001 164.388 46.1302 161.257 47.1165 159.634C48.1028 158.012 58.3413 144.999 60.0467 144.961C61.7521 144.922 59.6776 149.415 57.2469 153.029C54.8161 156.644 52.1562 160.665 52.0862 161.301C52.0162 161.938 51.9462 162.994 51.9462 162.994" fill="#FFEA9E"/>
<path d="M48.001 164.388C48.001 164.388 46.1302 161.257 47.1165 159.634C48.1028 158.012 58.3413 144.999 60.0467 144.961C61.7521 144.922 59.6776 149.415 57.2469 153.029C54.8161 156.644 52.1562 160.665 52.0862 161.301C52.0162 161.938 51.9462 162.994 51.9462 162.994" stroke="#263238" stroke-linecap="round" stroke-linejoin="round"/>
<path d="M51.9079 165.629C51.9079 165.629 51.7616 160.869 53.0342 158.667C54.3069 156.465 62.2674 145.591 63.1455 144.852C64.0236 144.114 66.4162 144.712 64.7427 148.511C63.0691 152.31 58.513 161.295 58.4239 162.377C58.3349 163.459 57.3676 170.159 57.3676 170.159" fill="#FFEA9E"/>
<path d="M51.9079 165.629C51.9079 165.629 51.7616 160.869 53.0342 158.667C54.3069 156.465 62.2674 145.591 63.1455 144.852C64.0236 144.114 66.4162 144.712 64.7427 148.511C63.0691 152.31 58.513 161.295 58.4239 162.377C58.3349 163.459 57.3676 170.159 57.3676 170.159" stroke="#263238" stroke-linecap="round" stroke-linejoin="round"/>
<path d="M57.4951 168.677C57.4951 168.677 58.2333 161.41 58.6532 161.308C59.0732 161.206 66.2892 146.469 66.2892 146.469C66.2892 146.469 68.7708 144.369 68.02 150.14C67.2691 155.912 63.8584 163.643 63.8584 163.643L63.4321 173.653" fill="#FFEA9E"/>
<path d="M57.4951 168.677C57.4951 168.677 58.2333 161.41 58.6532 161.308C59.0732 161.206 66.2892 146.469 66.2892 146.469C66.2892 146.469 68.7708 144.369 68.02 150.14C67.2691 155.912 63.8584 163.643 63.8584 163.643L63.4321 173.653" stroke="#263238" stroke-linecap="round" stroke-linejoin="round"/>
<path d="M63.604 170.274C63.604 170.274 65.7293 161.085 66.3339 160.322C66.9384 159.558 68.6628 151.96 69.7509 151.916C70.8391 151.871 71.3545 153.825 70.4254 156.86C69.4964 159.895 68.3892 163.344 68.3892 163.344L69.0255 170.051" fill="#FFEA9E"/>
<path d="M63.604 170.274C63.604 170.274 65.7293 161.085 66.3339 160.322C66.9384 159.558 68.6628 151.96 69.7509 151.916C70.8391 151.871 71.3545 153.825 70.4254 156.86C69.4964 159.895 68.3892 163.344 68.3892 163.344L69.0255 170.051" stroke="#263238" stroke-linecap="round" stroke-linejoin="round"/>
<path d="M122.872 244.279C127.58 243.388 144.469 223.916 144.469 223.916L142.999 246.493H250.837C249.52 235.555 242.323 141.932 241.598 139.997C240.828 137.942 196.049 118.967 196.049 118.967L175.776 119.737C175.776 119.737 150.399 136.415 143.699 140.264C136.998 144.114 134.72 145.654 134.72 147.194C134.72 148.734 119.932 208.504 119.932 208.504L83.2219 182.523L70.0945 194.817L117.991 244.132C117.991 244.132 118.163 245.176 122.872 244.279Z" fill="#FF2156" stroke="#263238" stroke-linecap="round" stroke-linejoin="round"/>
<path d="M144.52 214.575L144.73 170.796" stroke="#263238" stroke-linecap="round" stroke-linejoin="round"/>
<path d="M144.469 223.916L144.5 218.45" stroke="#263238" stroke-linecap="round" stroke-linejoin="round"/>
<path d="M144.214 181.575L139.34 165.667" stroke="#263238" stroke-linecap="round" stroke-linejoin="round"/>
<path d="M119.931 208.504C121.878 212.064 123.01 216.01 123.247 220.06" stroke="#263238" stroke-linecap="round" stroke-linejoin="round"/>
<path d="M123.247 222.809C123.247 222.809 123.132 224.171 123.132 226.92" stroke="#263238" stroke-linecap="round" stroke-linejoin="round"/>
<path d="M170.59 129.052L164.437 151.324L172.289 156.414L164.017 166.411L174.834 211.59L201.56 164.929L193.498 155.594L205.378 152.622L202.616 125.05C200.033 117.548 196.45 116.141 192.651 117.624C188.477 119.227 173.345 119.087 170.59 129.052Z" fill="#FF2156" stroke="#263238" stroke-linecap="round" stroke-linejoin="round"/>
<path d="M172.499 131.814C172.499 131.814 177.163 162.593 177.163 174.047C177.163 185.501 176.953 187.836 176.953 187.836C176.953 187.836 189.47 154.957 193.071 138.839C195.197 128.814 194.98 118.433 192.435 108.505C192.435 108.505 183.106 128.232 172.499 131.814Z" fill="white" stroke="#263238" stroke-linecap="round" stroke-linejoin="round"/>
<path d="M192.435 108.505C192.435 108.505 183.106 128.232 172.499 131.839C172.499 131.839 172.741 133.424 173.135 135.995C175.833 135.734 182.266 134.964 186.237 133.373C189.801 131.948 192.371 120.646 193.612 113.838C193.323 112.039 192.929 110.259 192.435 108.505Z" fill="#263238" stroke="#263238" stroke-linecap="round" stroke-linejoin="round"/>
<path d="M190.946 146.933C184.118 149.822 178.404 148.982 174.713 147.69C175.916 157.013 177.163 168.097 177.163 174.022C177.163 185.476 176.953 187.811 176.953 187.811C176.953 187.811 186.033 163.968 190.946 146.933Z" fill="#263238" stroke="#263238" stroke-linecap="round" stroke-linejoin="round"/>
<path d="M145.62 92.3108C145.62 92.3108 140.529 95.1297 137.348 85.7948C134.166 76.4598 144.036 58.8717 154.249 55.1492C164.462 51.4267 176.972 51.274 186.485 59.1963C195.998 67.1185 195.292 86.5011 195.292 86.5011C195.292 86.5011 204.455 85.973 209.736 97.2423C215.018 108.512 205.155 118.031 198.461 117.853C191.767 117.675 188.279 111.49 187.541 106.055C186.803 100.621 174.509 87.0293 168.343 85.4448C162.177 83.8603 157.774 89.4918 152.842 90.5354C147.911 91.579 145.62 92.3108 145.62 92.3108Z" fill="#263238"/>
<path d="M158.773 69.6893C158.773 69.6893 165.137 73.8318 176.724 75.7281C188.312 77.6243 194.847 80.3923 198.818 84.0003" stroke="#616161" stroke-linecap="round" stroke-linejoin="round"/>
<path d="M161.363 62.9824C161.363 62.9824 171.373 68.1621 182.763 67.6467C194.153 67.1312 201.407 75.9189 201.407 75.9189" stroke="#616161" stroke-linecap="round" stroke-linejoin="round"/>
<path d="M165.855 56.2501C171.273 58.2407 176.991 59.293 182.763 59.3617C188.224 59.3746 193.474 61.4759 197.436 65.235" stroke="#616161" stroke-linecap="round" stroke-linejoin="round"/>
<path d="M152.047 71.0956C152.047 71.0956 150.183 72.6164 143.775 79.2088C137.367 85.8011 139.321 91.1145 139.321 91.1145" stroke="#616161" stroke-linecap="round" stroke-linejoin="round"/>
<path d="M152.047 67.144C152.047 67.144 145.83 70.9619 139.957 75.0853C134.084 79.2087 134.262 84.5793 134.262 84.5793" stroke="#616161" stroke-linecap="round" stroke-linejoin="round"/>
<path d="M154.459 59.7053C150.646 61.1023 147.133 63.2097 144.106 65.9159C138.754 70.5802 135.834 73.6855 135.834 73.6855" stroke="#616161" stroke-linecap="round" stroke-linejoin="round"/>
<path d="M147.733 57.809C147.733 57.809 151.354 55.0474 154.981 53.9911C157.292 53.4091 159.734 53.6521 161.885 54.6783C161.885 54.6783 154.287 64.8596 154.809 73.8382" stroke="#616161" stroke-linecap="round" stroke-linejoin="round"/>
<path d="M145.62 92.3108C145.62 92.3108 140.529 95.1297 137.348 85.7948C134.166 76.4598 144.036 58.8717 154.249 55.1492C164.462 51.4267 176.972 51.274 186.485 59.1963C195.998 67.1185 195.292 86.5011 195.292 86.5011C195.292 86.5011 204.455 85.973 209.736 97.2423C215.018 108.512 205.155 118.031 198.461 117.853C191.767 117.675 188.279 111.49 187.541 106.055C186.803 100.621 174.509 87.0293 168.343 85.4448C162.177 83.8603 157.774 89.4918 152.842 90.5354C147.911 91.579 145.62 92.3108 145.62 92.3108Z" stroke="#263238" stroke-linecap="round" stroke-linejoin="round"/>
<path d="M144.386 90.7263C144.386 90.7263 149.139 105.699 151.43 112.743C153.721 119.787 160.065 129.479 165.875 132.298C171.684 135.117 181.904 131.42 183.316 130.185C184.729 128.951 191.945 115.919 193.179 113.1C194.414 110.281 193.529 103.058 193.529 103.058C193.529 103.058 196.876 98.305 196.711 93.9016C196.546 89.4982 194.064 87.3792 192.658 88.2637C191.775 88.8268 190.999 89.5421 190.367 90.3763C190.367 90.3763 189.132 88.0856 184.379 85.2857C179.626 82.4859 176.024 85.6612 168.273 83.3767C163.939 82.1406 159.723 80.5223 155.674 78.5406C155.674 78.5406 150.552 88.2637 144.386 90.7263Z" fill="white" stroke="#263238" stroke-linecap="round" stroke-linejoin="round"/>
<path d="M195.133 92.3872C195.133 92.3872 194.955 90.0646 193.345 91.4963C191.735 92.928 193.166 95.2443 193.166 95.2443C193.166 95.2443 195.667 94.7098 194.439 96.676" stroke="#263238" stroke-linecap="round" stroke-linejoin="round"/>
<path d="M151.748 102.18V105.324C152.846 105.733 154.026 105.874 155.19 105.737C156.354 105.6 157.469 105.188 158.442 104.535" stroke="#263238" stroke-linecap="round" stroke-linejoin="round"/>
<path d="M169.489 98.9032L169.616 102.575C170.974 102.762 172.357 102.659 173.673 102.274C174.989 101.889 176.208 101.231 177.252 100.341" stroke="#263238" stroke-linecap="round" stroke-linejoin="round"/>
<path d="M150.177 98.7695C150.177 98.7695 152.932 96.8032 159.359 98.5086" stroke="#263238" stroke-width="2" stroke-linecap="round" stroke-linejoin="round"/>
<path d="M164.608 97.3251C164.608 97.3251 167.23 94.3089 174.968 93.3925" stroke="#263238" stroke-width="2" stroke-linecap="round" stroke-linejoin="round"/>
<path d="M167.459 108.34C162.884 107.284 163.234 107.112 160.065 109.753C156.896 112.393 151.258 112.043 151.258 112.043H151.214C151.29 112.272 151.36 112.501 151.43 112.718C153.721 119.768 160.065 129.453 165.875 132.272C171.684 135.091 181.904 131.394 183.316 130.16C184.26 129.018 185.095 127.791 185.811 126.494C185.942 126.139 186.051 125.776 186.135 125.406C186.663 122.937 187.72 117.478 189.832 113.78C191.945 110.083 193.529 103.033 193.529 103.033C193.529 103.033 188.439 116.396 186.307 115.893C184.175 115.39 184.016 111.312 184.016 109.021C184.016 106.73 188.776 101.448 190.539 96.1606C192.301 90.8727 190.361 90.3509 190.361 90.3509C189.304 100.564 184.194 106.558 184.194 106.558C176.972 110.459 172.034 109.403 167.459 108.34Z" fill="#3B91F7" stroke="#263238" stroke-linecap="round" stroke-linejoin="round"/>
<path d="M142.273 97.2423C140.899 97.166 146.498 107.462 148.083 109.046C149.667 110.631 155.661 111.337 158.652 109.931C161.643 108.524 160.415 103.765 162.884 103.567C165.353 103.37 166.759 107.793 169.05 108.658C171.34 109.523 179.085 107.774 183.138 106.017C187.191 104.261 187.363 99.654 187.363 99.654L185.779 90.0518C185.779 90.0518 166.581 98.655 142.273 97.2423Z" stroke="#263238" stroke-linecap="round" stroke-linejoin="round"/>
<path d="M142.273 97.2423C142.273 97.2423 164.29 99.5331 192.295 87.3792" stroke="#263238" stroke-width="3" stroke-linecap="round" stroke-linejoin="round"/>
<path d="M180.847 92.489L183.138 102.708" stroke="#263238" stroke-linecap="round" stroke-linejoin="round"/>
<path d="M156.05 208.969L146.778 240.652L146.937 243.611L149.031 241.612L158.48 209.682C158.53 209.513 158.544 209.336 158.521 209.162C158.499 208.988 158.441 208.82 158.351 208.67C158.261 208.519 158.14 208.389 157.997 208.287C157.854 208.185 157.691 208.114 157.52 208.078C157.208 208.016 156.884 208.073 156.611 208.238C156.339 208.403 156.139 208.663 156.05 208.969Z" fill="white" stroke="#263238" stroke-linecap="round" stroke-linejoin="round"/>
<path d="M189.062 228.969C189.062 228.969 173.899 224.998 170.52 223.324C167.141 221.651 159.499 217.394 158.08 219.64C156.661 221.886 144.806 233.226 145.461 234.613C146.117 236 153.256 242.3 154.853 242.771C156.451 243.241 159.352 245.144 163.024 243.859C166.696 242.573 168.305 241.95 168.305 241.95C168.305 241.95 174.866 243.687 176.686 243.731C178.506 243.776 184.245 241.619 184.245 241.619L188.579 241.256L189.062 228.969Z" fill="#FFEA9E" stroke="#263238" stroke-linecap="round" stroke-linejoin="round"/>
<path d="M148.356 237.406L160.701 224.705" stroke="#263238" stroke-linecap="round" stroke-linejoin="round"/>
<path d="M151.245 240.658L162.419 229.522" stroke="#263238" stroke-linecap="round" stroke-linejoin="round"/>
<path d="M156.196 243.273L165.257 235.052" stroke="#263238" stroke-linecap="round" stroke-linejoin="round"/>
<path d="M227.516 149.498C227.516 149.498 216.431 163.115 216.329 167.989C216.227 172.864 225.747 217.986 225.747 217.986L185.302 225.055L186.415 244.33C186.415 244.33 250.589 243.941 253.16 243.744C255.73 243.547 261.101 244.431 261.655 242.389C262.208 240.346 243.468 143.332 242.985 142.04C242.465 140.908 241.586 139.98 240.486 139.398C239.385 138.816 238.123 138.613 236.895 138.82" fill="#FF2156"/>
<path d="M227.516 149.498C227.516 149.498 216.431 163.115 216.329 167.989C216.227 172.864 225.747 217.986 225.747 217.986L185.302 225.055L186.415 244.33C186.415 244.33 250.589 243.941 253.16 243.744C255.73 243.547 261.101 244.431 261.655 242.389C262.208 240.346 243.468 143.332 242.985 142.04C242.465 140.908 241.586 139.98 240.486 139.398C239.385 138.816 238.123 138.613 236.895 138.82" stroke="#263238" stroke-linecap="round" stroke-linejoin="round"/>
<path d="M225.747 217.986L240.942 215.758" stroke="#263238" stroke-linecap="round" stroke-linejoin="round"/>
<path d="M226.778 218.011L237.926 212.87" stroke="#263238" stroke-linecap="round" stroke-linejoin="round"/>
<path d="M243.405 215.943C243.405 215.943 247.967 215.256 250.252 215.485" stroke="#263238" stroke-linecap="round" stroke-linejoin="round"/>
<path d="M214 172.259H195.782V199.068H214V172.259Z" fill="white" stroke="#263238" stroke-linecap="round" stroke-linejoin="round"/>
<path d="M206.848 166.271H202.941V175.899H206.848V166.271Z" fill="#263238" stroke="#263238" stroke-linecap="round" stroke-linejoin="round"/>
<path d="M2.98096 246.436H280" stroke="#263238" stroke-linecap="round" stroke-linejoin="round"/>
<path d="M53.2444 213.175H59.404V241.772C59.404 242.176 59.3244 242.576 59.1696 242.95C59.0148 243.324 58.788 243.663 58.502 243.949C58.216 244.235 57.8765 244.462 57.5028 244.617C57.1291 244.772 56.7287 244.851 56.3242 244.851C55.5074 244.851 54.724 244.527 54.1464 243.949C53.5689 243.372 53.2444 242.588 53.2444 241.772V213.175Z" fill="white" stroke="#263238" stroke-linecap="round" stroke-linejoin="round"/>
<path d="M53.2446 224.858V241.772C53.2257 242.187 53.2913 242.603 53.4374 242.992C53.5835 243.382 53.807 243.738 54.0946 244.039C54.3821 244.34 54.7277 244.58 55.1104 244.743C55.4931 244.907 55.9051 244.991 56.3213 244.991C56.7375 244.991 57.1494 244.907 57.5321 244.743C57.9149 244.58 58.2604 244.34 58.548 244.039C58.8355 243.738 59.0591 243.382 59.2052 242.992C59.3513 242.603 59.4168 242.187 59.3979 241.772V224.858H53.2446Z" fill="#FF2156" stroke="#263238" stroke-linecap="round" stroke-linejoin="round"/>
<path d="M60.486 212.271H52.1565V218.062H60.486V212.271Z" fill="white" stroke="#263238" stroke-linecap="round" stroke-linejoin="round"/>
<path d="M68.3127 244.851C67.4959 244.851 66.7126 244.527 66.135 243.949C65.5574 243.372 65.2329 242.588 65.2329 241.772V213.175H71.3862V241.772C71.3862 242.587 71.0626 243.37 70.4864 243.947C69.9102 244.524 69.1285 244.85 68.3127 244.851Z" fill="white" stroke="#263238" stroke-linecap="round" stroke-linejoin="round"/>
<path d="M65.2139 224.858V241.772C65.195 242.187 65.2605 242.603 65.4066 242.992C65.5527 243.382 65.7763 243.738 66.0638 244.039C66.3514 244.34 66.6969 244.58 67.0797 244.743C67.4624 244.907 67.8743 244.991 68.2905 244.991C68.7067 244.991 69.1187 244.907 69.5014 244.743C69.8841 244.58 70.2297 244.34 70.5172 244.039C70.8048 243.738 71.0283 243.382 71.1744 242.992C71.3205 242.603 71.3861 242.187 71.3672 241.772V224.858H65.2139Z" fill="#FF2156" stroke="#263238" stroke-linecap="round" stroke-linejoin="round"/>
<path d="M72.455 212.271H64.1255V218.062H72.455V212.271Z" fill="white" stroke="#263238" stroke-linecap="round" stroke-linejoin="round"/>
<path d="M80.2629 244.851C79.4472 244.85 78.6655 244.524 78.0893 243.947C77.5131 243.37 77.1895 242.587 77.1895 241.772V213.175H83.3427V241.772C83.3427 242.588 83.0183 243.372 82.4407 243.949C81.8631 244.527 81.0797 244.851 80.2629 244.851Z" fill="white" stroke="#263238" stroke-linecap="round" stroke-linejoin="round"/>
<path d="M77.2214 224.858V241.772C77.2214 242.587 77.545 243.37 78.1212 243.947C78.6974 244.524 79.4792 244.85 80.2949 244.851C81.1117 244.851 81.8951 244.527 82.4727 243.949C83.0502 243.372 83.3747 242.588 83.3747 241.772V224.858H77.2214Z" fill="#FF2156" stroke="#263238" stroke-linecap="round" stroke-linejoin="round"/>
<path d="M84.4309 212.271H76.1013V218.062H84.4309V212.271Z" fill="white" stroke="#263238" stroke-linecap="round" stroke-linejoin="round"/>
<path d="M92.2385 244.851C91.4217 244.851 90.6383 244.527 90.0608 243.949C89.4832 243.372 89.1587 242.588 89.1587 241.772V213.175H95.312V241.772C95.312 242.587 94.9884 243.37 94.4122 243.947C93.836 244.524 93.0542 244.85 92.2385 244.851Z" fill="white" stroke="#263238" stroke-linecap="round" stroke-linejoin="round"/>
<path d="M89.1589 224.858V241.772C89.14 242.187 89.2056 242.603 89.3517 242.992C89.4978 243.382 89.7213 243.738 90.0089 244.039C90.2964 244.34 90.642 244.58 91.0247 244.743C91.4074 244.907 91.8194 244.991 92.2356 244.991C92.6518 244.991 93.0637 244.907 93.4464 244.743C93.8292 244.58 94.1747 244.34 94.4623 244.039C94.7499 243.738 94.9734 243.382 95.1195 242.992C95.2656 242.603 95.3312 242.187 95.3122 241.772V224.858H89.1589Z" fill="#FF2156" stroke="#263238" stroke-linecap="round" stroke-linejoin="round"/>
<path d="M96.4003 212.271H88.0708V218.062H96.4003V212.271Z" fill="white" stroke="#263238" stroke-linecap="round" stroke-linejoin="round"/>
<path d="M101.605 221.186H47.9883V223.006H101.605V242.007H45.3857V246.436H105.251V245.392V242.007V223.006V221.186H101.605Z" fill="white" stroke="#263238" stroke-linecap="round" stroke-linejoin="round"/>
<path d="M116.158 246.436H182.527V244.088C182.527 244.088 171.856 244.349 164.303 242.815C159.816 241.955 155.266 241.466 150.698 241.352C147.65 241.237 144.399 241.733 142.095 243.731C139.811 242.153 137.087 241.772 134.376 241.772C128.389 241.772 119.276 243.076 112.773 244.113C108.985 244.734 105.157 245.083 101.319 245.157V246.461L116.158 246.436Z" fill="#263238" stroke="#263238" stroke-linecap="round" stroke-linejoin="round"/>
<path d="M232.714 116.994L231.633 115.944C231.572 115.879 231.508 115.818 231.442 115.759C230.919 115.298 230.248 115.041 229.551 115.035C228.854 115.03 228.178 115.276 227.649 115.73C227.12 116.183 226.772 116.813 226.67 117.502C226.569 118.192 226.72 118.895 227.096 119.482C227.282 119.755 227.509 119.998 227.77 120.201L228.731 121.219L229.164 120.761C229.28 120.768 229.397 120.768 229.514 120.761C230.281 120.761 231.018 120.456 231.561 119.913C232.104 119.37 232.409 118.634 232.409 117.866C232.409 117.682 232.39 117.498 232.352 117.318L232.714 116.994Z" fill="#5E5E5E" stroke="#263238" stroke-linecap="round" stroke-linejoin="round"/>
<path d="M230.78 122.072C232.379 122.072 233.675 120.776 233.675 119.177C233.675 117.577 232.379 116.281 230.78 116.281C229.181 116.281 227.885 117.577 227.885 119.177C227.885 120.776 229.181 122.072 230.78 122.072Z" fill="#263238" stroke="#263238" stroke-linecap="round" stroke-linejoin="round"/>
<path d="M236.176 119.514L234.725 118.101L234.464 117.853C233.764 117.23 232.861 116.881 231.923 116.873C230.985 116.865 230.076 117.196 229.365 117.807C228.653 118.418 228.187 119.266 228.053 120.194C227.919 121.122 228.126 122.067 228.635 122.854L228.667 122.893C228.912 123.262 229.218 123.586 229.571 123.854L230.843 125.222L231.423 124.585C231.579 124.606 231.736 124.616 231.893 124.617C232.465 124.619 233.031 124.494 233.549 124.252C234.067 124.009 234.525 123.655 234.89 123.215C235.255 122.774 235.518 122.259 235.66 121.704C235.802 121.15 235.819 120.572 235.711 120.01L236.176 119.514Z" fill="#5E5E5E" stroke="#263238" stroke-linecap="round" stroke-linejoin="round"/>
<path d="M233.58 126.322C235.724 126.322 237.461 124.585 237.461 122.441C237.461 120.297 235.724 118.559 233.58 118.559C231.436 118.559 229.698 120.297 229.698 122.441C229.698 124.585 231.436 126.322 233.58 126.322Z" fill="#263238" stroke="#263238" stroke-linecap="round" stroke-linejoin="round"/>
<path d="M243.984 116.994L242.902 115.944C242.845 115.876 242.781 115.814 242.711 115.759C242.295 115.388 241.781 115.144 241.229 115.059C240.678 114.974 240.114 115.051 239.606 115.28C239.097 115.509 238.666 115.88 238.364 116.349C238.063 116.819 237.904 117.365 237.907 117.923C237.908 118.476 238.067 119.016 238.365 119.482C238.549 119.757 238.777 120 239.039 120.201L240 121.219L240.427 120.761C240.545 120.768 240.664 120.768 240.783 120.761C241.55 120.759 242.285 120.454 242.826 119.911C243.368 119.368 243.672 118.632 243.672 117.866C243.671 117.682 243.654 117.499 243.621 117.318L243.984 116.994Z" fill="#5E5E5E" stroke="#263238" stroke-linecap="round" stroke-linejoin="round"/>
<path d="M242.049 122.072C243.648 122.072 244.944 120.776 244.944 119.177C244.944 117.577 243.648 116.281 242.049 116.281C240.45 116.281 239.154 117.577 239.154 119.177C239.154 120.776 240.45 122.072 242.049 122.072Z" fill="#263238" stroke="#263238" stroke-linecap="round" stroke-linejoin="round"/>
<path d="M247.445 119.514L245.995 118.101L245.74 117.853C245.039 117.23 244.137 116.881 243.199 116.873C242.261 116.865 241.352 117.196 240.641 117.807C239.929 118.418 239.463 119.266 239.329 120.194C239.195 121.122 239.402 122.067 239.911 122.854L239.943 122.893C240.19 123.262 240.498 123.587 240.853 123.854L242.126 125.222L242.698 124.585C242.857 124.606 243.016 124.616 243.176 124.617C243.748 124.619 244.313 124.494 244.831 124.252C245.349 124.009 245.807 123.655 246.172 123.215C246.537 122.774 246.8 122.259 246.942 121.704C247.084 121.15 247.102 120.572 246.994 120.01L247.445 119.514Z" fill="#5E5E5E" stroke="#263238" stroke-linecap="round" stroke-linejoin="round"/>
<path d="M248.737 122.441C248.737 123.209 248.509 123.959 248.083 124.597C247.656 125.236 247.05 125.733 246.341 126.027C245.632 126.321 244.851 126.398 244.098 126.248C243.345 126.098 242.654 125.728 242.111 125.186C241.568 124.643 241.198 123.951 241.048 123.198C240.899 122.445 240.976 121.665 241.269 120.955C241.563 120.246 242.061 119.64 242.699 119.213C243.337 118.787 244.088 118.559 244.855 118.559C245.885 118.559 246.872 118.968 247.6 119.696C248.328 120.424 248.737 121.411 248.737 122.441Z" fill="#263238" stroke="#263238" stroke-linecap="round" stroke-linejoin="round"/>
<path d="M252.02 123.777C251.815 123.417 251.555 123.091 251.25 122.81L251.155 122.695C250.428 122.074 249.503 121.733 248.546 121.735H232.797C231.73 121.735 230.707 122.158 229.953 122.912C229.199 123.667 228.775 124.69 228.775 125.756C228.776 126.79 229.175 127.783 229.889 128.531H229.838L236.545 135.937L258.352 130.72L252.02 123.777Z" fill="#5E5E5E" stroke="#263238" stroke-linecap="round" stroke-linejoin="round"/>
<path d="M255.845 137.974H240.121C239.054 137.974 238.031 137.55 237.277 136.796C236.523 136.042 236.099 135.019 236.099 133.952C236.099 132.885 236.523 131.863 237.277 131.108C238.031 130.354 239.054 129.93 240.121 129.93H255.845C256.909 129.936 257.928 130.362 258.678 131.117C259.428 131.872 259.849 132.894 259.847 133.958C259.845 135.021 259.424 136.039 258.674 136.791C257.924 137.544 256.907 137.969 255.845 137.974Z" fill="#263238" stroke="#263238" stroke-linecap="round" stroke-linejoin="round"/>
<path d="M261.616 134.907H239.434L241.407 140.074L239.434 151.139H261.616C263.716 151.056 265.702 150.164 267.158 148.649C268.614 147.134 269.427 145.114 269.427 143.013C269.427 140.912 268.614 138.893 267.158 137.378C265.702 135.863 263.716 134.971 261.616 134.887V134.907Z" fill="#263238" stroke="#263238" stroke-linecap="round" stroke-linejoin="round"/>
<path d="M239.434 134.907V151.139C241.534 151.056 243.519 150.164 244.975 148.649C246.431 147.134 247.245 145.114 247.245 143.013C247.245 140.912 246.431 138.893 244.975 137.378C243.519 135.863 241.534 134.971 239.434 134.887V134.907Z" fill="#5E5E5E" stroke="#263238" stroke-linecap="round" stroke-linejoin="round"/>
<path d="M247.566 153.048C247.566 153.048 239.434 154.155 233.268 158.839C227.102 163.522 225.874 168.085 225.384 170.668C225.071 172.461 224.905 174.276 224.887 176.096V218.488H233.268V175.078C233.268 175.078 232.53 169.408 235.737 164.725C238.944 160.041 247.566 158.069 247.566 158.069V153.048Z" fill="#263238" stroke="#263238" stroke-linecap="round" stroke-linejoin="round"/>
<path d="M240.293 153.048C240.293 153.048 232.161 154.155 226.001 158.839C219.842 163.522 218.607 168.085 218.111 170.668C217.802 172.461 217.638 174.277 217.621 176.096V218.488H226.001V175.078C226.001 175.078 225.263 169.408 228.464 164.725C231.665 160.041 240.293 158.069 240.293 158.069V153.048Z" fill="white" stroke="#263238" stroke-linecap="round" stroke-linejoin="round"/>
<path d="M226.923 202.258C227.464 198.939 225.211 195.81 221.891 195.269C218.572 194.728 215.443 196.981 214.902 200.301C214.361 203.62 216.614 206.749 219.934 207.29C223.253 207.831 226.382 205.578 226.923 202.258Z" fill="#263238" stroke="#263238" stroke-linecap="round" stroke-linejoin="round"/>
<path d="M248.89 173.354H246.427V174.957H248.89V173.354Z" fill="#263238" stroke="#263238" stroke-linecap="round" stroke-linejoin="round"/>
<path d="M250.557 158.807H244.767V173.595H250.557V158.807Z" fill="#263238" stroke="#263238" stroke-linecap="round" stroke-linejoin="round"/>
<path d="M264.537 171.325L262.261 172.266L262.875 173.748L265.15 172.806L264.537 171.325Z" fill="#263238" stroke="#263238" stroke-linecap="round" stroke-linejoin="round"/>
<path d="M260.513 157.256L255.163 159.471L260.82 173.135L266.17 170.92L260.513 157.256Z" fill="#263238" stroke="#263238" stroke-linecap="round" stroke-linejoin="round"/>
<path d="M262.851 151.158H239.434V160.901H262.851V151.158Z" fill="#5E5E5E" stroke="#263238" stroke-linecap="round" stroke-linejoin="round"/>
<path d="M262.851 151.158H244.531V160.901H262.851V151.158Z" fill="#263238" stroke="#263238" stroke-linecap="round" stroke-linejoin="round"/>
<path d="M258.04 197.566H257.117V189.618H254.903V197.566H254.158V202.561H254.903V215.682H257.117V202.561H258.04V197.566Z" fill="#263238" stroke="#263238" stroke-linecap="round" stroke-linejoin="round"/>
<path d="M274.928 240.27H232.899V224.018C232.899 221.655 233.838 219.389 235.508 217.719C237.179 216.048 239.445 215.109 241.808 215.109H249.8C256.468 215.109 262.862 217.758 267.577 222.473C272.292 227.188 274.941 233.583 274.941 240.251L274.928 240.27Z" fill="#263238" stroke="#263238" stroke-linecap="round" stroke-linejoin="round"/>
<path d="M263.341 240.27H221.343V224.018C221.343 221.655 222.282 219.389 223.952 217.719C225.623 216.048 227.889 215.109 230.252 215.109H238.212C244.88 215.109 251.275 217.758 255.99 222.473C260.705 227.188 263.353 233.583 263.353 240.251L263.341 240.27Z" fill="#5E5E5E" stroke="#263238" stroke-linecap="round" stroke-linejoin="round"/>
<path d="M252.739 188.753H235.489V216.357H252.739V188.753Z" fill="#263238" stroke="#263238" stroke-linecap="round" stroke-linejoin="round"/>
<path d="M252.739 197.769H235.489V207.353H252.739V197.769Z" fill="#5E5E5E" stroke="#263238" stroke-linecap="round" stroke-linejoin="round"/>
<path d="M258.537 240.27H216.507V224.018C216.507 221.655 217.446 219.389 219.116 217.719C220.787 216.048 223.053 215.109 225.416 215.109H233.408C240.076 215.109 246.471 217.758 251.186 222.473C255.9 227.188 258.549 233.583 258.549 240.251L258.537 240.27Z" fill="#263238" stroke="#263238" stroke-linecap="round" stroke-linejoin="round"/>
<path d="M209.056 246.436C208.896 246.436 208.741 246.376 208.623 246.268C208.505 246.159 208.432 246.01 208.419 245.85L207.898 241.008H210.214L209.692 245.85C209.679 246.01 209.607 246.159 209.489 246.268C209.371 246.376 209.216 246.436 209.056 246.436Z" fill="#263238" stroke="#263238" stroke-linecap="round" stroke-linejoin="round"/>
<path d="M236.303 246.436C236.143 246.436 235.988 246.376 235.871 246.268C235.753 246.159 235.68 246.01 235.667 245.85L235.145 241.008H237.487L236.965 245.85C236.952 246.015 236.876 246.167 236.752 246.277C236.629 246.386 236.468 246.443 236.303 246.436Z" fill="#263238" stroke="#263238" stroke-linecap="round" stroke-linejoin="round"/>
<path d="M246.427 246.436C246.267 246.436 246.112 246.376 245.994 246.268C245.876 246.159 245.804 246.01 245.791 245.85L245.269 241.008H247.611L247.089 245.85C247.076 246.015 247 246.167 246.876 246.277C246.753 246.386 246.592 246.443 246.427 246.436Z" fill="#263238" stroke="#263238" stroke-linecap="round" stroke-linejoin="round"/>
<path d="M274.031 246.436C273.871 246.436 273.716 246.376 273.598 246.268C273.48 246.159 273.407 246.01 273.395 245.85L272.873 241.008H275.214L274.693 245.85C274.68 246.015 274.603 246.167 274.48 246.277C274.357 246.386 274.196 246.443 274.031 246.436Z" fill="#263238" stroke="#263238" stroke-linecap="round" stroke-linejoin="round"/>
<path d="M246.949 240.27H204.951V224.018C204.951 221.655 205.89 219.389 207.56 217.719C209.231 216.048 211.497 215.109 213.86 215.109H221.852C228.52 215.109 234.915 217.758 239.63 222.473C244.345 227.188 246.993 233.583 246.993 240.251L246.949 240.27Z" fill="#5E5E5E" stroke="#263238" stroke-linecap="round" stroke-linejoin="round"/>
<path d="M276.596 239.163H203.876C203.163 239.163 202.584 239.741 202.584 240.454V240.461C202.584 241.174 203.163 241.752 203.876 241.752H276.596C277.309 241.752 277.887 241.174 277.887 240.461V240.454C277.887 239.741 277.309 239.163 276.596 239.163Z" fill="white" stroke="#263238" stroke-linecap="round" stroke-linejoin="round"/>
<path d="M278.619 186.042H224.518V190.604H278.619V186.042Z" fill="white" stroke="#263238" stroke-linecap="round" stroke-linejoin="round"/>
<path d="M278.626 186.042H243.112V190.604H278.626V186.042Z" fill="#263238" stroke="#263238" stroke-linecap="round" stroke-linejoin="round"/>
</svg>
