<svg width="31" height="28" viewBox="0 0 41 38" fill="none" xmlns="http://www.w3.org/2000/svg">
<path fill-rule="evenodd" clip-rule="evenodd" d="M30.7751 21.8999V4.23463C30.7751 4.23463 31.2073 0.123505 25.8778 0.123505H14.4493C9.11983 0.123505 9.55208 4.23463 9.55208 4.23463V21.8999C9.55208 21.8999 9.20533 26.0514 12.0743 26.0514H16.727V28.3029H19.1043V33.25H16.727V35.625H19.1043V37.8029H21.3748V35.625H23.6026V33.25H21.3748V28.3029H23.7498V26.0514H28.2528C31.4686 26.0514 30.7751 21.8999 30.7751 21.8999ZM25.2936 24.1466H23.7498V23.75H16.7246V24.1466H15.1761C11.5043 24.1466 11.6658 20.9261 11.6658 20.9261V11.7658H16.5512V9.62588H11.6658V7.01575H16.5132V4.87588H11.7917C12.0387 3.86888 12.7963 2.17788 15.1737 2.17788H25.2936C28.4998 2.17788 28.8062 5.60975 28.8062 5.60975V20.9261C28.8086 20.9261 29.0936 24.1466 25.2936 24.1466Z" fill="#FF2156"/>
<path fill-rule="evenodd" clip-rule="evenodd" d="M14.3046 20.3254C14.3046 21.9784 15.9742 22.242 15.9742 22.242H24.3841C24.3841 22.242 26.0561 22.1802 26.0561 20.3254V12.9391H14.3046V20.3254Z" fill="#FF0000"/>
</svg>
