	<svg width="28" height="32" viewBox="0 0 32 36" fill="none" xmlns="http://www.w3.org/2000/svg">
<path d="M31.5456 19.3456C31.5476 18.3386 31.2671 17.3511 30.7358 16.4956C30.2046 15.6401 29.444 14.9508 28.5404 14.5061C27.6369 14.0614 26.6267 13.8791 25.6248 13.9799C24.6228 14.0808 23.6692 14.4608 22.8724 15.0766C22.0757 15.6925 21.4677 16.5196 21.1176 17.4638C20.7675 18.4081 20.6894 19.4316 20.8921 20.418C21.0948 21.4044 21.5703 22.3142 22.2643 23.0439C22.9584 23.7735 23.8433 24.2938 24.8183 24.5456V26.0729C24.8183 27.8619 24.1076 29.5776 22.8426 30.8426C21.5776 32.1076 19.8619 32.8183 18.0729 32.8183C16.2839 32.8183 14.5681 32.1076 13.3031 30.8426C12.0381 29.5776 11.3274 27.8619 11.3274 26.0729C11.3951 24.4669 11.7876 22.8912 12.4814 21.4412C13.1751 19.9912 14.1557 18.6969 15.3638 17.6365H15.182C16.4677 16.7977 17.528 15.6562 18.2698 14.3121C19.0116 12.968 19.4122 11.4624 19.4365 9.92742V4.50924C19.4365 3.43873 19.0112 2.41206 18.2543 1.6551C17.4973 0.898132 16.4707 0.472874 15.4001 0.472874H13.3638C13.0069 0.472874 12.6647 0.614627 12.4124 0.866948C12.1601 1.11927 12.0183 1.46149 12.0183 1.81833C12.0183 2.17516 12.1601 2.51739 12.4124 2.76971C12.6647 3.02203 13.0069 3.16378 13.3638 3.16378H15.3638C15.7206 3.16378 16.0628 3.30554 16.3152 3.55786C16.5675 3.81018 16.7092 4.1524 16.7092 4.50924V9.92742C16.7093 11.7053 16.0055 13.4109 14.7517 14.6715C13.498 15.9321 11.7962 16.6451 10.0183 16.6547V17.6365V16.6547C9.13488 16.6595 8.25915 16.4902 7.44112 16.1566C6.6231 15.8229 5.87881 15.3314 5.25074 14.7101C4.62268 14.0888 4.12315 13.3498 3.78066 12.5354C3.43818 11.7211 3.25945 10.8472 3.25469 9.96378V4.50924C3.25469 4.1524 3.39644 3.81018 3.64876 3.55786C3.90108 3.30554 4.24331 3.16378 4.60014 3.16378H6.49105C6.84789 3.16378 7.19011 3.02203 7.44243 2.76971C7.69475 2.51739 7.83651 2.17516 7.83651 1.81833C7.83651 1.46149 7.69475 1.11927 7.44243 0.866948C7.19011 0.614627 6.84789 0.472874 6.49105 0.472874H4.60014C3.54229 0.491937 2.53421 0.925597 1.7929 1.68051C1.0516 2.43541 0.636335 3.45121 0.636506 4.50924V9.92742C0.632578 11.4396 0.994257 12.9304 1.69073 14.2727C2.3872 15.615 3.39783 16.769 4.63651 17.6365C5.83795 18.7001 6.81172 19.9958 7.49915 21.4457C8.18659 22.8955 8.57347 24.4695 8.63651 26.0729C8.63651 27.3121 8.88059 28.5391 9.35481 29.684C9.82903 30.8289 10.5241 31.8691 11.4004 32.7454C12.2766 33.6216 13.3169 34.3167 14.4617 34.7909C15.6066 35.2652 16.8337 35.5092 18.0729 35.5092C19.3121 35.5092 20.5391 35.2652 21.684 34.7909C22.8289 34.3167 23.8691 33.6216 24.7454 32.7454C25.6216 31.8691 26.3167 30.8289 26.7909 29.684C27.2652 28.5391 27.5092 27.3121 27.5092 26.0729V24.5456C28.6627 24.2478 29.6847 23.5757 30.4151 22.6347C31.1456 21.6936 31.5432 20.5369 31.5456 19.3456ZM26.0911 22.0365C25.5588 22.0365 25.0386 21.8787 24.5961 21.583C24.1535 21.2873 23.8086 20.8671 23.605 20.3754C23.4013 19.8837 23.348 19.3426 23.4518 18.8206C23.5557 18.2986 23.812 17.8192 24.1883 17.4428C24.5646 17.0665 25.0441 16.8102 25.5661 16.7064C26.0881 16.6026 26.6291 16.6559 27.1208 16.8595C27.6125 17.0632 28.0328 17.4081 28.3285 17.8506C28.6241 18.2931 28.782 18.8134 28.782 19.3456C28.782 19.699 28.7124 20.0489 28.5771 20.3754C28.4419 20.7018 28.2437 20.9985 27.9938 21.2484C27.7439 21.4982 27.4473 21.6964 27.1208 21.8317C26.7943 21.9669 26.4444 22.0365 26.0911 22.0365Z" fill="#FF2156"/>
</svg>